<svg class="svg-icon" style="width: 1em;height: 1em;vertical-align: middle;fill: #fcdc00;overflow: hidden;" viewBox="0 0 1024 1024" version="1.1" xmlns="http://www.w3.org/2000/svg">
<path d="M216.4 107.1h50.2c5.7 0 10.4 4.7 10.4 10.4V156c0 5.7-4.7 10.4-10.4 10.4h-45.8c-5.7 0-13.4 4.6-13.4 10.4l-1 246.6c-1.3 35.2-25.1 90-58.6 91.4 23.2-1 59.6 39.5 59.6 89.4l-1 242.4c0 5.8 4.7 19.6 10.6 19.6h49.3c5.9 0 10.8 6.8 10.8 12.8v30.9c0 5.9-4.8 10.8-10.8 10.8h-49.8c-32.4-12.2-60.6-40.7-60.6-90.4v-181c0-49.9-27.1-90.4-60.6-90.4H77.1c-6.8 0-12.2-5.5-12.2-12.2v-65.9c0-6.8 5.5-12.2 12.2-12.2h18.1c33.5 0 60.6-40.5 60.6-90.4V197.4c0-49.9 27.1-90.3 60.6-90.3M808.6 107.1c33.5 0 60.6 40.4 60.6 90.3v180.8c0 49.9 27.1 90.4 60.6 90.4h18.1c6.7 0 12.2 5.4 12.2 12.2v65.9c0 6.7-5.4 12.2-12.2 12.2h-18.2c-33.5 0-60.6 40.5-60.6 90.4v181c0 49.7-28.2 78.2-60.6 90.4h-49.8c-6 0-10.8-4.9-10.8-10.8V879c0-6 4.9-12.8 10.8-12.8H808c5.9 0 10.6-13.8 10.6-19.6l-1-242.4c0-49.9 36.4-90.4 59.6-89.4-33.5-1.4-57.3-56.2-58.6-91.4l-1-246.6c0-5.8-7.7-10.4-13.4-10.4h-45.8c-5.7 0-10.4-4.7-10.4-10.4v-38.5c0-5.7 4.7-10.4 10.4-10.4h50.2M508.4 667.8c16.8 0 30.4 13.6 30.4 30.4 0 16.8-13.6 30.4-30.4 30.4-16.8 0-30.4-13.6-30.4-30.4 0-16.8 13.6-30.4 30.4-30.4M386.8 667.8c16.8 0 30.4 13.6 30.4 30.4 0 16.8-13.6 30.4-30.4 30.4-16.8 0-30.4-13.6-30.4-30.4 0-16.8 13.6-30.4 30.4-30.4M630 667.8c16.8 0 30.4 13.6 30.4 30.4 0 16.8-13.6 30.4-30.4 30.4-16.8 0-30.4-13.6-30.4-30.4 0-16.8 13.6-30.4 30.4-30.4z"  />
</svg>